<?xml version="1.0" encoding="UTF-8"?>
<svg width="262px" height="68px" viewBox="0 0 262 68" version="1.1" xmlns="http://www.w3.org/2000/svg" xmlns:xlink="http://www.w3.org/1999/xlink">
    <!-- Generator: Sketch 41.1 (35376) - http://www.bohemiancoding.com/sketch -->
    <title>Logo</title>
    <desc>Created with Sketch.</desc>
    <defs></defs>
    <g id="Home" stroke="none" stroke-width="1" fill="none" fill-rule="evenodd">
        <g id="Exports" transform="translate(-840.000000, -585.000000)">
            <g id="Logo" transform="translate(840.000000, 585.000000)">
                <path d="M89.983986,21.7166286 C86.990765,18.9526286 83.1330013,17.3732 79.0097978,17.3732 C75.9500735,17.3732 73.0233558,18.2949143 70.5627344,19.8080571 C70.0307081,18.2286286 68.5670626,17.1103429 66.771474,17.1103429 C64.5762923,17.1103429 62.7807037,18.8212 62.7807037,20.9926286 L62.7807037,46.1972 C62.7807037,48.3686286 64.5762923,50.1457714 66.771474,50.1457714 C68.9660823,50.1457714 70.7622442,48.3686286 70.7622442,46.1972 L70.7622442,33.7594857 C70.7622442,29.0869143 74.4870013,25.2703429 79.0097978,25.2703429 C81.0713996,25.2703429 83.066498,26.0600571 84.5301435,27.4417714 C86.1927256,28.9554857 88.6539204,28.8240571 90.1834958,27.2446286 C91.7130713,25.6652 91.5800648,23.1646286 89.983986,21.7166286 M123.728095,33.4960571 C123.994109,32.8383429 124.260122,32.1800571 124.260122,31.5874857 C124.393128,29.4160571 123.195496,26.9812 122.131443,25.1383429 C119.737325,21.1903429 115.879561,18.4263429 111.356765,17.5709143 C110.359216,17.3732 109.427596,17.3074857 108.430047,17.3074857 C99.1849444,17.3074857 91.8019335,24.8097714 91.8019335,33.8252 C91.8019335,42.9726286 99.1849444,50.3429143 108.430047,50.3429143 C112.221308,50.3429143 117.342634,49.1583429 121.000888,45.6703429 C122.596966,44.1572 122.66347,41.5903429 121.067391,40.0772 C119.537815,38.4977714 117.010117,38.4977714 115.414039,40.0109143 C113.68438,41.6560571 110.558726,42.5120571 108.430047,42.5120571 C104.30627,42.5120571 100.91403,39.6160571 99.9829838,35.8652 L120.468861,35.8652 C122.06494,35.8652 123.195496,34.7463429 123.728095,33.4960571 M108.430047,25.2703429 C111.423268,25.2703429 113.88389,26.7177714 115.214529,29.2189143 L101.114113,29.2189143 C102.710192,26.7840571 105.370323,25.2703429 108.430047,25.2703429 M158.379172,17.2417714 C156.184564,17.2417714 154.854498,18.9526286 154.854498,20.9926286 L154.854498,21.3217714 C151.994857,19.0183429 148.669119,17.5052 144.678349,17.5052 C135.765189,17.5052 128.582262,24.6777714 128.582262,33.4303429 C128.582262,42.1829143 135.765189,49.2897714 144.678349,49.2897714 C148.669119,49.2897714 151.994857,47.8423429 154.854498,45.4074857 L154.854498,46.1972 C154.854498,48.2372 156.184564,49.9480571 158.379172,49.9480571 C160.574354,49.9480571 162.236936,48.2372 162.236936,46.1972 L162.236936,20.9926286 C162.236936,18.9526286 160.574354,17.2417714 158.379172,17.2417714 M144.678349,41.5903429 C140.088476,41.5903429 136.297216,37.9709143 136.297216,33.4303429 C136.297216,28.8897714 140.088476,25.2046286 144.678349,25.2046286 C149.201146,25.2046286 152.992406,28.8897714 152.992406,33.4303429 C152.992406,37.9709143 149.201146,41.5903429 144.678349,41.5903429 M179.374144,42.1829143 C178.775614,42.1829143 178.310664,41.6560571 178.310664,41.0640571 C178.310664,40.8663429 178.243588,40.6692 178.243588,40.4720571 C178.243588,40.2743429 178.310664,40.0772 178.310664,39.8794857 L178.310664,4.14577143 C178.310664,1.97434286 176.514502,0.197771429 174.252818,0.197771429 C172.058209,0.197771429 170.262047,1.97434286 170.262047,4.14577143 L170.262047,18.3606286 L170.262047,38.0366286 C170.262047,41.1297714 170.129041,44.0252 172.125286,46.5920571 C173.853798,48.7634857 176.581006,50.1457714 179.374144,50.1457714 C181.636402,50.1457714 183.431417,48.3686286 183.431417,46.1314857 C183.431417,43.9594857 181.636402,42.1829143 179.374144,42.1829143 M195.011588,50.1457714 C192.683973,50.1457714 190.821308,48.3029143 190.821308,46.0652 L190.821308,20.6634857 C190.821308,18.4263429 192.683973,16.6492 195.011588,16.6492 C197.207343,16.6492 199.069435,18.4263429 199.069435,20.6634857 L199.069435,46.0652 C199.069435,48.3029143 197.207343,50.1457714 195.011588,50.1457714 M220.818301,42.0509143 C220.353351,42.0509143 219.754249,42.1172 219.421732,41.7880571 C218.956209,41.3932 219.089216,40.6034857 218.956209,40.0772 L218.956209,24.4149143 L221.151391,24.4149143 C223.346572,24.4149143 225.141588,22.6377714 225.141588,20.4663429 C225.141588,18.2949143 223.346572,16.5177714 221.151391,16.5177714 L218.956209,16.5177714 L218.956209,3.94862857 C218.956209,1.7772 217.160047,5.71428571e-05 214.965439,5.71428571e-05 C212.770257,5.71428571e-05 210.975242,1.7772 210.975242,3.94862857 L210.975242,16.5177714 L208.114454,16.5177714 C205.919846,16.5177714 204.123684,18.2949143 204.123684,20.4663429 C204.123684,22.6377714 205.919846,24.4149143 208.114454,24.4149143 L210.975242,24.4149143 L210.975242,40.9983429 C210.975242,43.0383429 211.906288,45.4074857 213.236354,46.9212 C214.765929,48.6320571 216.894607,49.5532 219.089216,49.8823429 C219.688319,49.9480571 220.219772,49.9480571 220.818301,49.9480571 C223.012909,49.9480571 224.809071,48.2372 224.809071,45.9994857 C224.809071,43.8280571 223.012909,42.0509143 220.818301,42.0509143 M257.872095,25.4720571 C255.810494,25.4720571 254.014905,27.2492 254.014905,29.4206286 L254.014905,33.2332 C254.014905,37.7737714 250.622091,41.5246286 246.431811,41.5246286 C242.308034,41.5246286 238.916367,37.7737714 238.916367,33.2332 L238.916367,21.4532 C238.916367,19.3474857 237.186708,17.5052 235.058603,17.5052 C232.929925,17.5052 231.201413,19.3474857 231.201413,21.4532 L231.201413,33.2332 C231.201413,42.1829143 238.051251,49.4217714 246.431811,49.4217714 C249.225522,49.4217714 251.819723,48.6320571 254.014905,47.3817714 L254.014905,50.0794857 C254.014905,54.8834857 250.156568,58.8320571 245.434262,58.8320571 C242.973067,58.8320571 240.578949,57.7132 238.916367,55.8052 C237.519225,54.0937714 235.058603,53.8966286 233.461951,55.3440571 C231.866446,56.7920571 231.666362,59.2926286 233.063505,60.9377714 C236.189732,64.6229143 240.645452,66.7292 245.434262,66.7292 C254.413351,66.7292 261.795789,59.2269143 261.795789,50.0794857 L261.795789,29.4206286 C261.795789,27.2492 260.066704,25.4720571 257.872095,25.4720571" id="Fill-1" fill="#494441"></path>
                <path d="M69.2258464,67.5497714 L69.2258464,65.9943429 L64.5597239,65.9943429 L64.5597239,58.4274857 L62.7807611,58.4274857 L62.7807611,67.5497714 L69.2258464,67.5497714 Z M69.8060302,67.5497714 L71.6365904,67.5497714 L72.4741877,65.2754857 L75.6709317,65.2754857 L76.5217151,67.5497714 L78.3522753,67.5497714 L74.8717457,58.4274857 L73.2991724,58.4274857 L69.8060302,67.5497714 Z M72.770586,64.0292 L74.0857457,60.4440571 L75.3487348,64.0292 L72.770586,64.0292 Z M84.6041571,67.5497714 L84.6041571,64.4914857 L86.3573212,64.4914857 L88.2262928,67.5497714 L90.2242578,67.5497714 L88.1357107,64.1194857 C88.6430849,63.9052 89.0449711,63.5560571 89.3413694,63.0720571 C89.6377676,62.5880571 89.7856801,62.0509143 89.7856801,61.4594857 C89.7856801,61.0914857 89.7128705,60.7252 89.5666779,60.3612 C89.4204853,59.9972 89.2186823,59.6720571 88.9606954,59.3846286 C88.7032818,59.0977714 88.3959908,58.8663429 88.0393956,58.6909143 C87.6828004,58.5149143 87.2935269,58.4274857 86.8727217,58.4274857 L82.8251943,58.4274857 L82.8251943,67.5497714 L84.6041571,67.5497714 Z M84.6041571,59.9823429 L86.7569142,59.9823429 C86.911133,59.9823429 87.0636319,60.0183429 87.2144109,60.0914857 C87.3646166,60.1640571 87.4981965,60.2669143 87.6140039,60.3989143 C87.7298114,60.5326286 87.8221133,60.6886286 87.8909098,60.8686286 C87.9597063,61.0486286 87.9941046,61.2457714 87.9941046,61.4594857 C87.9941046,61.6652 87.9637195,61.8577714 87.9040958,62.0377714 C87.8438989,62.2177714 87.7619164,62.3737714 87.659295,62.5069143 C87.5561002,62.6394857 87.4334131,62.7446286 87.291807,62.8217714 C87.1496276,62.8983429 86.9971287,62.9372 86.8343103,62.9372 L84.6041571,62.9372 L84.6041571,59.9823429 Z M96.6819558,55.7937714 L95.0709711,55.7937714 L94.3749799,57.3223429 L95.4831768,57.6566286 L96.6819558,55.7937714 Z M93.5626079,65.9943429 L93.5626079,63.6183429 L97.4169317,63.6183429 L97.4169317,62.1794857 L93.5626079,62.1794857 L93.5626079,59.9823429 L98.0229142,59.9823429 L98.0229142,58.4274857 L91.7836451,58.4274857 L91.7836451,67.5497714 L98.1387217,67.5497714 L98.1387217,65.9943429 L93.5626079,65.9943429 Z M98.989505,58.4274857 L102.585842,67.5497714 L104.081019,67.5497714 L107.652131,58.4274857 L105.782586,58.4274857 L103.333431,65.3263429 L100.858477,58.4274857 L98.989505,58.4274857 Z M114.381002,67.2349143 C114.9308,66.9823429 115.403203,66.6440571 115.798783,66.2200571 C116.193789,65.7960571 116.503374,65.3074857 116.726962,64.7549143 C116.949978,64.2029143 117.061772,63.6229143 117.061772,63.0143429 C117.061772,62.4406286 116.954564,61.8749143 116.739575,61.3183429 C116.524586,60.7617714 116.224175,60.2646286 115.837194,59.8274857 C115.450787,59.3909143 114.984691,59.0377714 114.438905,58.7680571 C113.89312,58.4983429 113.289431,58.3634857 112.627838,58.3634857 C111.983444,58.3634857 111.386061,58.4897714 110.835689,58.7423429 C110.28589,58.9943429 109.811194,59.3354857 109.411601,59.7634857 C109.012008,60.1920571 108.698411,60.6840571 108.470809,61.2412 C108.242634,61.7983429 108.12912,62.3806286 108.12912,62.9886286 C108.12912,63.5714857 108.236328,64.1406286 108.451317,64.6972 C108.665733,65.2537714 108.969011,65.7492 109.360004,66.1806286 C109.750997,66.6137714 110.219387,66.9612 110.765172,67.2223429 C111.310958,67.4834857 111.91866,67.6132 112.588853,67.6132 C113.23382,67.6132 113.83063,67.4874857 114.381002,67.2349143 L114.381002,67.2349143 Z M110.107593,61.8772 C110.2234,61.5132 110.393098,61.1880571 110.616687,60.9006286 C110.840275,60.6132 111.119474,60.3829143 111.454857,60.2063429 C111.789667,60.0314857 112.172061,59.9429143 112.602039,59.9429143 C113.014245,59.9429143 113.386319,60.0269143 113.717116,60.1943429 C114.047912,60.3612 114.327111,60.5852 114.554713,60.8686286 C114.782315,61.1514857 114.958892,61.4772 115.083299,61.8452 C115.207706,62.2137714 115.270196,62.5949143 115.270196,62.9886286 C115.270196,63.3657714 115.212293,63.7360571 115.096485,64.1000571 C114.980105,64.4640571 114.808113,64.7920571 114.580512,65.0829143 C114.35291,65.3737714 114.073711,65.6074857 113.742914,65.7829143 C113.411544,65.9589143 113.031444,66.0463429 112.602039,66.0463429 C112.18066,66.0463429 111.804573,65.9612 111.473776,65.7897714 C111.14298,65.6183429 110.863781,65.3914857 110.636179,65.1086286 C110.408577,64.8252 110.234293,64.5006286 110.113899,64.1320571 C109.993505,63.7640571 109.933881,63.3829143 109.933881,62.9886286 C109.933881,62.6114857 109.991785,62.2412 110.107593,61.8772 L110.107593,61.8772 Z M125.260021,67.5497714 L125.260021,65.9943429 L120.593899,65.9943429 L120.593899,58.4274857 L118.814936,58.4274857 L118.814936,67.5497714 L125.260021,67.5497714 Z M128.985925,65.7960571 C128.70214,65.6292 128.472245,65.4086286 128.29624,65.1337714 C128.119663,64.8600571 127.995256,64.5457714 127.922446,64.1897714 C127.849063,63.8349143 127.812945,63.4640571 127.812945,63.0783429 L127.812945,58.4274857 L126.033982,58.4274857 L126.033982,63.0783429 C126.033982,63.6697714 126.104498,64.2394857 126.246678,64.7874857 C126.388284,65.3354857 126.618179,65.8172 126.936363,66.2320571 C127.253973,66.6486286 127.668472,66.9823429 128.17986,67.2349143 C128.691247,67.4874857 129.312135,67.6132 130.042525,67.6132 C130.747116,67.6132 131.353098,67.4937714 131.860472,67.2537714 C132.367273,67.0143429 132.781199,66.6892 133.103969,66.2772 C133.426166,65.8669143 133.662367,65.3869143 133.813146,64.8389143 C133.963352,64.2909143 134.038455,63.7040571 134.038455,63.0783429 L134.038455,58.4274857 L132.273251,58.4274857 L132.273251,63.0783429 C132.273251,63.4554857 132.235986,63.8217714 132.163177,64.1772 C132.089221,64.5326286 131.965387,64.8474857 131.789382,65.1212 C131.613378,65.3949143 131.38119,65.6183429 131.093391,65.7897714 C130.805019,65.9612 130.450717,66.0463429 130.029912,66.0463429 C129.617133,66.0463429 129.269137,65.9629143 128.985925,65.7960571 L128.985925,65.7960571 Z M143.062262,58.4274857 L135.443623,58.4274857 L135.443623,59.9823429 L138.369768,59.9823429 L138.369768,67.5497714 L140.136118,67.5497714 L140.136118,59.9823429 L143.062262,59.9823429 L143.062262,58.4274857 Z M144.581518,67.5497714 L146.361054,67.5497714 L146.361054,58.4274857 L144.581518,58.4274857 L144.581518,67.5497714 Z M154.352914,67.2349143 C154.90386,66.9823429 155.376262,66.6440571 155.771269,66.2200571 C156.166849,65.7960571 156.47586,65.3074857 156.700021,64.7549143 C156.922463,64.2029143 157.034831,63.6229143 157.034831,63.0143429 C157.034831,62.4406286 156.92705,61.8749143 156.712061,61.3183429 C156.497072,60.7617714 156.197234,60.2646286 155.80968,59.8274857 C155.423273,59.3909143 154.957177,59.0377714 154.411391,58.7680571 C153.865606,58.4983429 153.26249,58.3634857 152.600323,58.3634857 C151.955356,58.3634857 151.357973,58.4897714 150.808175,58.7423429 C150.258376,58.9943429 149.784253,59.3354857 149.38466,59.7634857 C148.985067,60.1920571 148.670897,60.6840571 148.442722,61.2412 C148.215693,61.7983429 148.102179,62.3806286 148.102179,62.9886286 C148.102179,63.5714857 148.208814,64.1406286 148.423803,64.6972 C148.638792,65.2537714 148.941496,65.7492 149.333063,66.1806286 C149.724056,66.6137714 150.191873,66.9612 150.738232,67.2223429 C151.28287,67.4834857 151.891719,67.6132 152.561339,67.6132 C153.206306,67.6132 153.803116,67.4874857 154.352914,67.2349143 L154.352914,67.2349143 Z M150.080652,61.8772 C150.196459,61.5132 150.365584,61.1880571 150.589172,60.9006286 C150.813334,60.6132 151.09196,60.3829143 151.427343,60.2063429 C151.762153,60.0314857 152.144547,59.9429143 152.574525,59.9429143 C152.98673,59.9429143 153.358232,60.0269143 153.690175,60.1943429 C154.020398,60.3612 154.30017,60.5852 154.527772,60.8686286 C154.7548,61.1514857 154.931378,61.4772 155.055785,61.8452 C155.180192,62.2137714 155.243256,62.5949143 155.243256,62.9886286 C155.243256,63.3657714 155.184779,63.7360571 155.068398,64.1000571 C154.953164,64.4640571 154.780599,64.7920571 154.552997,65.0829143 C154.325969,65.3737714 154.046196,65.6074857 153.7154,65.7829143 C153.38403,65.9589143 153.00393,66.0463429 152.574525,66.0463429 C152.153719,66.0463429 151.777632,65.9612 151.446835,65.7897714 C151.115466,65.6183429 150.83684,65.3914857 150.609238,65.1086286 C150.381063,64.8252 150.206779,64.5006286 150.086385,64.1320571 C149.965991,63.7640571 149.906367,63.3829143 149.906367,62.9886286 C149.906367,62.6114857 149.964844,62.2412 150.080652,61.8772 L150.080652,61.8772 Z M165.271492,67.5497714 L166.715072,67.5497714 L166.715072,58.4406286 L164.936682,58.4406286 L164.936682,64.4149143 L160.166792,58.4274857 L158.787422,58.4274857 L158.787422,67.5497714 L160.566958,67.5497714 L160.566958,61.7040571 L165.271492,67.5497714 Z" id="Fill-3" fill="#A7A1A0"></path>
                <path d="M178.72889,59.3784571 C178.32471,59.1041714 177.852308,58.8664571 177.310535,58.6653143 C176.769336,58.4636 176.17654,58.3636 175.532146,58.3636 C175.067769,58.3636 174.633205,58.4258857 174.230172,58.5498857 C173.825993,58.6738857 173.471691,58.8561714 173.166693,59.0956 C172.862268,59.3356 172.6232,59.6350286 172.451209,59.9944571 C172.279218,60.3550286 172.193222,60.7658857 172.193222,61.2281714 C172.193222,61.5801714 172.247113,61.8818857 172.354894,62.1338857 C172.462102,62.3870286 172.6232,62.6093143 172.838189,62.8018857 C173.052605,62.9944571 173.320912,63.1624571 173.643682,63.3030286 C173.965879,63.4441714 174.345406,63.5756 174.784557,63.6956 C175.145165,63.7978857 175.471949,63.8921714 175.764334,63.9778857 C176.056146,64.0630286 176.30496,64.1573143 176.511923,64.2607429 C176.717165,64.3636 176.877691,64.4836 176.988912,64.6207429 C177.100133,64.7578857 177.156316,64.9247429 177.156316,65.1218857 C177.156316,65.7470286 176.666715,66.0590286 175.686938,66.0590286 C175.334356,66.0590286 174.990373,66.0161714 174.656137,65.9310286 C174.320181,65.8447429 174.015183,65.7407429 173.74057,65.6161714 C173.465384,65.4916 173.22689,65.3676 173.025087,65.2436 C172.82271,65.1196 172.683397,65.0184571 172.605428,64.9413143 L171.819428,66.4698857 C172.352601,66.8470286 172.953997,67.1390286 173.624189,67.3436 C174.294382,67.5498857 174.972601,67.6521714 175.661139,67.6521714 C176.107743,67.6521714 176.535428,67.6036 176.943621,67.5047429 C177.351813,67.4064571 177.712995,67.2498857 178.026019,67.0356 C178.339616,66.8213143 178.589004,66.5407429 178.774181,66.1944571 C178.958785,65.8470286 179.051087,65.4298857 179.051087,64.9413143 C179.051087,64.5218857 178.98229,64.1687429 178.844697,63.8818857 C178.707104,63.5950286 178.511607,63.3481714 178.258207,63.1430286 C178.004807,62.9373143 177.694649,62.7658857 177.330028,62.6287429 C176.964833,62.4916 176.558933,62.3636 176.112903,62.2436 C175.768347,62.1573143 175.465642,62.0767429 175.203642,61.9996 C174.941642,61.9218857 174.72436,61.8367429 174.552369,61.7424571 C174.380378,61.6481714 174.249664,61.5384571 174.158509,61.4144571 C174.069074,61.2910286 174.023782,61.1338857 174.023782,60.9453143 C174.023782,60.6207429 174.144176,60.3670286 174.384964,60.1881714 C174.625179,60.0081714 174.990373,59.9173143 175.480548,59.9173143 C175.755161,59.9173143 176.026334,59.9521714 176.292347,60.0207429 C176.558933,60.0887429 176.806028,60.1733143 177.033629,60.2710286 C177.261231,60.3693143 177.455008,60.4698857 177.613813,60.5733143 C177.772618,60.6761714 177.881546,60.7578857 177.942316,60.8173143 L178.72889,59.3784571 Z M186.475949,67.2350286 C187.025747,66.9824571 187.498723,66.6441714 187.893157,66.2201714 C188.288737,65.7956 188.598321,65.3081714 188.821336,64.7550286 C189.045498,64.2024571 189.157292,63.6230286 189.157292,63.0138857 C189.157292,62.4401714 189.049511,61.8750286 188.835095,61.3184571 C188.620106,60.7618857 188.319122,60.2647429 187.932715,59.8276 C187.545734,59.3904571 187.079065,59.0373143 186.533853,58.7681714 C185.988067,58.4984571 185.383804,58.3636 184.722785,58.3636 C184.078391,58.3636 183.481008,58.4893143 182.931209,58.7424571 C182.380837,58.9944571 181.906141,59.3356 181.506548,59.7641714 C181.106382,60.1921714 180.793358,60.6841714 180.565756,61.2413143 C180.337581,61.7978857 180.224067,62.3807429 180.224067,62.9881714 C180.224067,63.5716 180.331275,64.1407429 180.546264,64.6978857 C180.761253,65.2538857 181.063958,65.7487429 181.454951,66.1807429 C181.845944,66.6138857 182.314334,66.9613143 182.860119,67.2224571 C183.405332,67.4836 184.013607,67.6133143 184.684373,67.6133143 C185.328767,67.6133143 185.925577,67.4876 186.475949,67.2350286 L186.475949,67.2350286 Z M182.203113,61.8773143 C182.31892,61.5127429 182.488618,61.1881714 182.712207,60.9007429 C182.935222,60.6133143 183.213848,60.3830286 183.549804,60.2064571 C183.884614,60.0316 184.266435,59.9430286 184.696413,59.9430286 C185.109765,59.9430286 185.481266,60.0270286 185.811489,60.1944571 C186.142859,60.3613143 186.422058,60.5858857 186.649087,60.8681714 C186.877262,61.1516 187.053839,61.4773143 187.177673,61.8447429 C187.302653,62.2138857 187.36457,62.5950286 187.36457,62.9881714 C187.36457,63.3658857 187.30724,63.7361714 187.191432,64.1001714 C187.075052,64.4636 186.90306,64.7921714 186.674885,65.0824571 C186.447857,65.3738857 186.169231,65.6070286 185.837288,65.7830286 C185.507065,65.9590286 185.126391,66.0464571 184.696413,66.0464571 C184.275607,66.0464571 183.900667,65.9613143 183.568723,65.7898857 C183.237354,65.6184571 182.958728,65.3910286 182.731126,65.1081714 C182.503524,64.8253143 182.32924,64.5007429 182.209419,64.1316 C182.088452,63.7641714 182.028828,63.3830286 182.028828,62.9881714 C182.028828,62.6116 182.086159,62.2413143 182.203113,61.8773143 L182.203113,61.8773143 Z M190.684575,64.6396 C190.903004,65.2001714 191.209148,65.7013143 191.599568,66.1430286 C191.990561,66.5836 192.457231,66.9413143 192.99843,67.2156 C193.539629,67.4893143 194.137012,67.6270286 194.790006,67.6270286 C195.159214,67.6270286 195.537594,67.5796 195.924001,67.4858857 C196.310982,67.3910286 196.674456,67.2538857 197.013853,67.0744571 C197.352675,66.8938857 197.65882,66.6744571 197.928273,66.4127429 C198.199446,66.1516 198.407555,65.8493143 198.554321,65.5070286 L197.097555,64.6721714 C196.99436,64.9201714 196.856767,65.1316 196.684203,65.3081714 C196.513358,65.4836 196.325888,65.6270286 196.124084,65.7384571 C195.921708,65.8493143 195.709012,65.9310286 195.485997,65.9824571 C195.262408,66.0333143 195.047993,66.0590286 194.84103,66.0590286 C194.446596,66.0590286 194.083122,65.9738857 193.752325,65.8018857 C193.421529,65.6310286 193.137743,65.4041714 192.901542,65.1218857 C192.665914,64.8390286 192.48303,64.5110286 192.35461,64.1384571 C192.225043,63.7658857 192.16026,63.3784571 192.16026,62.9761714 C192.16026,62.6161714 192.216443,62.2538857 192.328238,61.8904571 C192.439459,61.5264571 192.605144,61.2001714 192.824146,60.9138857 C193.043721,60.6270286 193.318334,60.3927429 193.648557,60.2133143 C193.9805,60.0333143 194.368627,59.9430286 194.815804,59.9430286 C195.022194,59.9430286 195.232596,59.9670286 195.447586,60.0138857 C195.662001,60.0613143 195.868391,60.1361714 196.066181,60.2390286 C196.263971,60.3418857 196.448001,60.4813143 196.620566,60.6561714 C196.792557,60.8327429 196.938176,61.0487429 197.059144,61.3058857 L198.425327,60.3670286 C198.124343,59.7761714 197.666273,59.2967429 197.052264,58.9287429 C196.437682,58.5601714 195.709012,58.3756 194.866828,58.3756 C194.153638,58.3756 193.518417,58.5093143 192.958872,58.7738857 C192.401047,59.0396 191.928645,59.3870286 191.541664,59.8150286 C191.155257,60.2436 190.860579,60.7293143 190.659349,61.2727429 C190.456973,61.8178857 190.355498,62.3670286 190.355498,62.9247429 C190.355498,63.5070286 190.465572,64.0790286 190.684575,64.6396 L190.684575,64.6396 Z M200.138933,67.5498857 L201.917896,67.5498857 L201.917896,58.4276 L200.138933,58.4276 L200.138933,67.5498857 Z M203.323065,67.5498857 L205.153625,67.5498857 L205.991796,65.2750286 L209.18854,65.2750286 L210.039323,67.5498857 L211.869883,67.5498857 L208.38878,58.4276 L206.81678,58.4276 L203.323065,67.5498857 Z M206.288194,64.0293143 L207.60278,60.4441714 L208.865769,64.0293143 L206.288194,64.0293143 Z M219.707524,67.5498857 L219.707524,65.9944571 L215.040828,65.9944571 L215.040828,58.4276 L213.261866,58.4276 L213.261866,67.5498857 L219.707524,67.5498857 Z M222.955866,65.9944571 L222.955866,63.6184571 L226.809616,63.6184571 L226.809616,62.1790286 L222.955866,62.1790286 L222.955866,59.9824571 L227.415599,59.9824571 L227.415599,58.4276 L221.17633,58.4276 L221.17633,67.5498857 L227.531406,67.5498857 L227.531406,65.9944571 L222.955866,65.9944571 Z" id="Fill-5" fill="#008BC1"></path>
                <path d="M2.816586,22.1044571 C2.57522495,22.7021714 2.92952691,23.4398857 3.54296236,23.6387429 C4.11511991,23.8570286 4.81913742,23.5473143 5.04272604,22.9776 C5.45321182,21.9530286 5.934214,20.9553143 6.48745252,19.9987429 C6.65829716,19.7181714 6.79990328,19.3976 6.75117243,19.0610286 C6.69785514,18.4827429 6.16582888,18.0004571 5.58277856,18.0061714 C5.15452035,17.9924571 4.73543501,18.2330286 4.52617899,18.6033143 C3.87318556,19.7273143 3.29128184,20.8941714 2.816586,22.1044571" id="Fill-7" fill="#008BC1"></path>
                <path d="M34.4370621,6.87062857 C33.8029877,6.74605714 33.1408214,7.22834286 33.0588389,7.86605714 C32.9499112,8.46777143 33.3856223,9.0992 33.9887383,9.21291429 C35.0751497,9.42548571 36.1483751,9.7112 37.1935085,10.0746286 C37.5013729,10.1894857 37.8453554,10.2700571 38.1681256,10.1592 C38.7270972,10.0003429 39.103758,9.39062857 38.9896705,8.81977143 C38.9248871,8.39805714 38.6101431,8.03234286 38.2059637,7.89634286 C36.9767996,7.46491429 35.7178236,7.11062857 34.4370621,6.87062857" id="Fill-9" fill="#008BC1"></path>
                <path d="M9.44037024,12.8098286 C9.23054092,13.4806857 9.74307484,14.2452571 10.4419326,14.3138286 C10.8541383,14.3806857 11.2485716,14.1812571 11.5363702,13.9001143 C15.8969217,10.1315429 21.7440508,8.12011429 27.510344,8.45611429 C27.923123,8.50697143 28.3657138,8.37268571 28.6334468,8.04354286 C29.0015081,7.62697143 29.0089611,6.95268571 28.6546591,6.5264 C28.4476963,6.26525714 28.1272193,6.10297143 27.7964228,6.08354286 C23.1257138,5.78697143 18.385635,6.86125714 14.2865103,9.10868571 C12.6944446,9.97897143 11.1964009,11.0241143 9.82677724,12.2126857 C9.64446652,12.3704 9.50286039,12.5761143 9.44037024,12.8098286" id="Fill-11" fill="#008BC1"></path>
                <path d="M12.0205256,56.2724571 C12.5668845,56.6176 13.3591908,56.4033143 13.6653352,55.8387429 C13.9852389,55.3164571 13.8069414,54.5701714 13.2846613,54.2478857 C12.3484556,53.6604571 11.4506613,53.0078857 10.6061842,52.2941714 C10.3602368,52.0764571 10.0701449,51.8781714 9.72788228,51.8656 C9.14941838,51.8130286 8.57726083,52.2467429 8.4769326,52.8198857 C8.38577724,53.2370286 8.54687571,53.6913143 8.87537899,53.9627429 C9.86604858,54.8073143 10.9117554,55.5890286 12.0205256,56.2724571" id="Fill-13" fill="#008BC1"></path>
                <path d="M44.6126376,55.5084571 C44.134502,55.9433143 43.3175435,55.8696 42.9173772,55.3661714 C42.5114779,54.9067429 42.5567689,54.1410286 43.0148389,53.7341714 C43.8346639,52.9930286 44.6051847,52.1947429 45.3120687,51.3461714 C45.5167383,51.0890286 45.7678455,50.8427429 46.1026551,50.7718857 C46.6633466,50.6198857 47.3025807,50.9484571 47.500944,51.4958857 C47.6637624,51.8901714 47.5840731,52.3650286 47.3071672,52.6896 C46.479316,53.6918857 45.5855348,54.6427429 44.6126376,55.5084571" id="Fill-15" fill="#008BC1"></path>
                <g id="Group-19" transform="translate(0.000000, 27.652571)" fill="#008BC1">
                    <path d="M4.04632341,20.4463429 C4.67007834,20.7737714 5.51742188,20.4097714 5.71177199,19.7366286 C5.85223151,19.3446286 5.7272512,18.9217714 5.50136937,18.5886286 C2.57121182,13.6326286 1.64417899,7.53662857 3.01781575,1.94462857 C3.14222276,1.54977143 3.09005208,1.09148571 2.81371947,0.7692 C2.46973698,0.334342857 1.80585077,0.204057143 1.32026214,0.474914286 C1.02558381,0.630342857 0.807728228,0.914342857 0.728612254,1.23548571 C-0.408249891,5.76005714 -0.205300219,10.6012 1.27095799,15.0257714 C1.84139562,16.7446286 2.60217024,18.4023429 3.52748315,19.9594857 C3.65017024,20.1669143 3.82732123,20.3434857 4.04632341,20.4463429" id="Fill-17"></path>
                </g>
                <path d="M51.7408722,46.7892 C51.1371829,47.1526286 50.2709204,46.8389143 50.0364389,46.1777714 C49.8736206,45.7949143 49.9733755,45.3657714 50.1786184,45.0200571 C52.812951,39.9012 53.3793755,33.7617714 51.6783821,28.2594857 C51.5316162,27.8726286 51.555695,27.4120571 51.8125352,27.0749143 C52.1312923,26.6200571 52.7854324,26.4509143 53.2865002,26.6932 C53.5903514,26.8303429 53.8236862,27.1017714 53.9228678,27.4177714 C55.3234499,31.8674857 55.4060057,36.7132 54.1923208,41.2160571 C53.7239313,42.9652 53.0623383,44.6634857 52.2310473,46.2732 C52.1198263,46.4869143 51.9541414,46.6737714 51.7408722,46.7892" id="Fill-20" fill="#008BC1"></path>
                <path d="M38.6072193,59.3935429 C39.0194249,58.8232571 38.7746241,57.9364 38.1330967,57.6506857 C37.7627422,57.4575429 37.3253112,57.5232571 36.9629829,57.6992571 C31.6324009,59.9038286 25.4470223,59.9729714 20.0814687,57.8381143 C19.7059545,57.6615429 19.243298,57.6489714 18.8861295,57.8781143 C18.4051274,58.1575429 18.1838319,58.7941143 18.3850617,59.3101143 C18.4985759,59.6232571 18.7508298,59.8775429 19.0598407,60.0009714 C23.3968867,61.7512571 28.2355737,62.2244 32.8363396,61.3804 C34.6221821,61.0552571 36.3747729,60.5364 38.0511142,59.8381143 C38.2735562,59.7455429 38.4742127,59.5958286 38.6072193,59.3935429" id="Fill-22" fill="#008BC1"></path>
                <path d="M27.3228162,25.1636 C30.4542035,25.1636 33.0277659,26.6224571 34.420895,29.1418857 L19.6703523,29.1418857 C21.3392407,26.6881714 24.1232057,25.1636 27.3228162,25.1636 M43.3254551,33.4504571 C43.604081,32.7876 43.8821335,32.1253143 43.8821335,31.5287429 C44.0220197,29.3407429 42.7687768,26.8876 41.6554201,25.0321714 C39.1506543,21.0544571 35.1157396,18.2704571 30.3848337,17.4081714 C29.3402735,17.2081714 28.3668031,17.1430286 27.3228162,17.1430286 C17.652895,17.1430286 9.92991466,24.7007429 9.92991466,33.7818857 C9.92991466,42.9967429 17.652895,50.4213143 27.3228162,50.4213143 C31.2889344,50.4213143 36.6458884,49.2276 40.4726937,45.7144571 C42.143302,44.1904571 42.2120985,41.6041714 40.5437834,40.0801714 C38.9425449,38.4881714 36.2990394,38.4881714 34.6284311,40.0133143 C32.8208031,41.6716 29.5495295,42.5327429 27.3228162,42.5327429 C23.0092757,42.5327429 19.460523,39.6156 18.4864792,35.8367429 L39.9160153,35.8367429 C41.5860503,35.8367429 42.7687768,34.7098857 43.3254551,33.4504571" id="Fill-24" fill="#008BC1"></path>
                <path d="M195.012046,11.5162857 C192.684432,11.5162857 190.821193,9.67342857 190.821193,7.50257143 L190.821193,7.17285714 C190.821193,4.86942857 192.684432,3.09342857 195.012046,3.09342857 C197.206655,3.09342857 199.06932,4.86942857 199.06932,7.17285714 L199.06932,7.50257143 C199.06932,9.67342857 197.206655,11.5162857 195.012046,11.5162857" id="Fill-26" fill="#008BC1"></path>
            </g>
        </g>
    </g>
</svg>