<?xml version="1.0" encoding="UTF-8"?>
<svg width="45px" height="46px" viewBox="0 0 45 46" version="1.1" xmlns="http://www.w3.org/2000/svg" xmlns:xlink="http://www.w3.org/1999/xlink">
    <!-- Generator: Sketch 41.1 (35376) - http://www.bohemiancoding.com/sketch -->
    <title>facebook-logo-button</title>
    <desc>Created with Sketch.</desc>
    <defs></defs>
    <g id="Home" stroke="none" stroke-width="1" fill="none" fill-rule="evenodd">
        <g id="Exports" transform="translate(-253.000000, -1048.000000)" fill="#21201E">
            <g id="facebook-logo-button" transform="translate(253.000000, 1048.000000)">
                <g id="Capa_1">
                    <path d="M22.4515063,0 C10.0717967,0 0,10.1299507 0,22.5811399 C0,35.0314196 10.0717967,45.1622798 22.4515063,45.1622798 C34.8303115,45.1622798 44.9030125,35.0314196 44.9030125,22.5811399 C44.9030125,10.1299507 34.8321202,0 22.4515063,0 Z M28.0349913,23.3761095 L24.3823033,23.3761095 L24.3823033,36.4703692 L18.9697412,36.4703692 L18.9697412,23.3761095 L16.3968525,23.3761095 L16.3968525,18.7481856 L18.9697412,18.7481856 L18.9697412,15.7547702 C18.9697412,13.610899 19.9826183,10.2609296 24.4320428,10.2609296 L28.4428552,10.2763924 L28.4428552,14.7687895 L25.5317379,14.7687895 C25.0578561,14.7687895 24.384112,15.0070985 24.384112,16.0294622 L24.384112,18.7490952 L28.5079688,18.7490952 L28.0349913,23.3761095 Z" id="Shape"></path>
                </g>
            </g>
        </g>
    </g>
</svg>