<?xml version="1.0" encoding="UTF-8"?>
<svg width="45px" height="46px" viewBox="0 0 45 46" version="1.1" xmlns="http://www.w3.org/2000/svg" xmlns:xlink="http://www.w3.org/1999/xlink">
    <!-- Generator: Sketch 41.1 (35376) - http://www.bohemiancoding.com/sketch -->
    <title>twitter-logo-button</title>
    <desc>Created with Sketch.</desc>
    <defs></defs>
    <g id="Home" stroke="none" stroke-width="1" fill="none" fill-rule="evenodd">
        <g id="Exports" transform="translate(-134.000000, -1049.000000)" fill="#21201E">
            <g id="twitter-logo-button" transform="translate(134.000000, 1049.000000)">
                <g id="Capa_1">
                    <path d="M22.4974307,0 C10.0923985,0 0,10.1506714 0,22.6273295 C0,35.1030762 10.0923985,45.254659 22.4974307,45.254659 C34.9015567,45.254659 44.9948614,35.1030762 44.9948614,22.6273295 C44.9948614,10.1506714 34.9033691,0 22.4974307,0 Z M32.5336446,17.4485457 C32.5436128,17.6727592 32.54905,17.8987955 32.54905,18.1248318 C32.54905,25.0070909 27.3419995,32.9402367 17.8150725,32.9402367 C14.8907509,32.9402367 12.1685128,32.0807518 9.87762808,30.6024013 C10.2827015,30.6507075 10.6950245,30.6753163 11.1127847,30.6753163 C13.5396001,30.6753163 15.7715816,29.8422631 17.5441174,28.4459419 C15.2786064,28.4040158 13.3656089,26.8983223 12.7067983,24.8284493 C13.0221574,24.8886042 13.3474848,24.9223273 13.6800618,24.9223273 C14.1521943,24.9223273 14.6107337,24.8603496 15.0448056,24.7409514 C12.6759873,24.2633585 10.8916708,22.158851 10.8916708,19.6341711 C10.8916708,19.6122966 10.8916708,19.5895107 10.892577,19.5685477 C11.5903544,19.9577312 12.3887205,20.1928819 13.2369278,20.2193135 C11.8486227,19.2869137 10.9342624,17.6918993 10.9342624,15.8854316 C10.9342624,14.9302459 11.1889059,14.035215 11.6347584,13.2659623 C14.1875363,16.4177107 18.0044692,18.490318 22.3071278,18.7090628 C22.2183198,18.3271708 22.1739157,17.9306958 22.1739157,17.5214607 C22.1739157,14.6458776 24.4919866,12.3135109 27.3510615,12.3135109 C28.8408616,12.3135109 30.1847627,12.946048 31.1308401,13.9577429 C32.3116245,13.724415 33.4171939,13.292394 34.4203622,12.69358 C34.0306943,13.9103481 33.2123917,14.9302459 32.1403519,15.5755431 C33.1888304,15.4497649 34.18928,15.1708652 35.1145147,14.7561615 C34.423987,15.7988452 33.5458749,16.716662 32.5336446,17.4485457 Z" id="Shape"></path>
                </g>
            </g>
        </g>
    </g>
</svg>