<?xml version="1.0" encoding="UTF-8"?>
<svg width="46px" height="46px" viewBox="0 0 46 46" version="1.1" xmlns="http://www.w3.org/2000/svg" xmlns:xlink="http://www.w3.org/1999/xlink">
    <!-- Generator: Sketch 41.1 (35376) - http://www.bohemiancoding.com/sketch -->
    <title>youtube-symbol</title>
    <desc>Created with Sketch.</desc>
    <defs></defs>
    <g id="Home" stroke="none" stroke-width="1" fill="none" fill-rule="evenodd">
        <g id="Exports" transform="translate(-193.000000, -1048.000000)">
            <g id="youtube-symbol" transform="translate(193.000000, 1048.000000)">
                <g id="Capa_1">
                    <g id="Group">
                        <path d="M18.4350287,27.6421892 C21.8177128,25.8779915 25.170878,24.1300303 28.5549458,22.3649048 C25.1607309,20.583543 21.8084882,18.825376 18.4350287,17.0546838 C18.4350287,20.5960682 18.4350287,24.1012687 18.4350287,27.6421892 Z" id="Shape" fill="#494442"></path>
                        <path d="M22.5427714,0 C10.0931655,0 0,10.150979 0,22.672932 C0,35.194885 10.0931655,45.3458639 22.5427714,45.3458639 C34.9923772,45.3458639 45.0855428,35.194885 45.0855428,22.672932 C45.0855428,10.150979 34.9923772,0 22.5427714,0 Z M37.9022973,30.2409363 C37.512094,31.9434358 36.127472,33.1992031 34.4610366,33.3861533 C30.5142643,33.830102 26.519985,33.8324215 22.5418489,33.830102 C18.5637128,33.8324215 14.568511,33.830102 10.6208163,33.3861533 C8.95438084,33.1992031 7.57068132,31.9434358 7.18140052,30.2409363 C6.62653701,27.8156864 6.62653701,25.169158 6.62653701,22.672932 C6.62653701,20.1767059 6.63299427,17.5292497 7.18785778,15.1049276 C7.57713858,13.4024282 8.9608381,12.146197 10.6272736,11.9587829 C14.5749683,11.515298 18.57017,11.5129785 22.5483062,11.515298 C26.5255198,11.5129785 30.5207216,11.515298 34.4670326,11.9587829 C36.1343905,12.146197 37.5190125,13.4019643 37.9082933,15.1049276 C38.4631568,17.5297136 38.4585445,20.1767059 38.4585445,22.672932 C38.4585445,25.169158 38.4571608,27.8161503 37.9022973,30.2409363 Z" id="Shape" fill="#21201E"></path>
                    </g>
                </g>
            </g>
        </g>
    </g>
</svg>